<svg width="200" height="200" viewBox="0 0 200 200" fill="none" xmlns="http://www.w3.org/2000/svg">
    <path d="M200.5 100C200.5 155.228 155.728 200 100.5 200C45.2715 200 0.500003 155.228 0.500003 100C0.500003 44.7715 45.2715 0 100.5 0C155.728 0 200.5 44.7715 200.5 100Z" fill="#855BE9"/>
    <path d="M49.479 189.704L158.808 188.583C158.808 188.583 205.064 33 100.781 33C-0.984009 33 49.479 189.704 49.479 189.704Z" fill="#562307"/>
    <path d="M64.118 199.152C65.956 195.722 68.073 192.441 70.417 189.347C78.612 178.525 87.468 172.829 87.629 172.726C91.047 170.577 92.084 166.065 89.942 162.639C87.796 159.207 83.276 158.164 79.845 160.309C79.405 160.583 68.949 167.196 59.111 180.001C54.65 185.81 50.877 192.302 47.949 199.152H64.118Z" fill="#FFB37F"/>
    <path d="M121.246 172.727C121.407 172.828 130.263 178.525 138.459 189.347C140.814 192.456 142.912 195.733 144.73 199.152H160.789C157.976 192.374 154.325 185.94 149.763 180.002C139.926 167.195 129.47 160.585 129.031 160.309C125.598 158.164 121.078 159.207 118.933 162.64C116.791 166.066 117.827 170.577 121.246 172.727Z" fill="#FFC695"/>
    <path d="M141.337 199.152C139.477 174.524 134.261 167.093 129.809 162.237C125.657 157.707 111.518 150.868 104.097 152.861C96.676 150.868 82.536 157.707 78.385 162.237C73.935 167.093 70.491 174.524 69.6 199.152H141.337Z" fill="#FFC695"/>
    <path d="M141.088 199.152C140.835 193.988 140.409 189.567 139.761 185.781C139.761 185.781 134.139 179.05 103.864 179.612C77.798 180.096 70.485 185.781 70.485 185.781C70.088 189.567 69.79 193.987 69.603 199.152H141.088Z" fill="#FFF9F9"/>
    <path d="M65.107 199.152L69.576 192.15L68.767 199.152H84.241V158.307C84.241 158.307 64.618 162.792 50.882 189.984L62.775 199.152H65.107Z" fill="black"/>
    <path d="M67.057 199.152L67.411 198.662L49.713 185.82L44.446 193.081L52.811 199.152H67.057Z" fill="#423232"/>
    <path d="M88.206 199.152V154.662L80.833 157.186V199.152H88.206Z" fill="#423232"/>
    <path d="M141.253 199.152L140.446 192.15L144.915 199.152H147.248L159.141 189.984C145.404 162.792 125.781 158.307 125.781 158.307V199.152H141.253Z" fill="black"/>
    <path d="M157.211 199.152L165.576 193.081L160.308 185.82L142.611 198.662L142.966 199.152H157.211Z" fill="#303030"/>
    <path d="M129.187 199.152V157.186L121.814 154.662V199.152H129.187Z" fill="#303030"/>
    <path d="M104.945 55.567C92.251 56.156 79.08 59.654 69.623 66.11C55.689 75.621 50.564 95.487 52.6 110.68C57.953 150.663 96.286 159.485 104.945 160.182V55.567Z" fill="#FFC695"/>
    <path d="M104.09 55.567C116.782 56.155 129.113 59.654 138.571 66.11C152.505 75.621 154.851 95.38 153.912 110.68C152.641 131.396 130.214 159.428 104.09 160.182V55.567Z" fill="#FFC695"/>
    <path d="M78.762 117.109C81.7752 117.109 84.218 114.666 84.218 111.653C84.218 108.64 81.7752 106.197 78.762 106.197C75.7487 106.197 73.306 108.64 73.306 111.653C73.306 114.666 75.7487 117.109 78.762 117.109Z" fill="#333331"/>
    <path d="M129.432 117.109C132.445 117.109 134.888 114.666 134.888 111.653C134.888 108.64 132.445 106.197 129.432 106.197C126.419 106.197 123.976 108.64 123.976 111.653C123.976 114.666 126.419 117.109 129.432 117.109Z" fill="#333331"/>
    <path d="M105 146.576C106.657 146.576 108 144.785 108 142.576C108 140.367 106.657 138.576 105 138.576C103.343 138.576 102 140.367 102 142.576C102 144.785 103.343 146.576 105 146.576Z" fill="#FF003D"/>
    <path d="M111.946 124.699C111.946 127.021 109.982 128.904 107.56 128.904H100.633C98.21 128.904 96.247 127.022 96.247 124.699C96.247 122.377 98.21 120.494 100.633 120.494H107.56C109.982 120.494 111.946 122.377 111.946 124.699Z" fill="#F29555"/>
    <path d="M78.915 78.414C78.915 78.414 112.554 109.531 155.445 103.643C155.445 103.643 159.649 46.455 102.463 46.455C45.275 46.455 53.221 94.182 53.221 94.182C53.221 94.182 63.777 91.87 78.915 78.414Z" fill="#74320A"/>
    <path d="M80.388 72.8699L69.993 49.3409L59.303 64.2349L58.978 63.7409L40.554 62.1349L51.632 85.3509L62.234 70.2059L80.388 72.8699Z" fill="black"/>
</svg>
